<svg width="131" height="27" viewBox="0 0 131 27" fill="none" xmlns="http://www.w3.org/2000/svg">
<path d="M77.5856 17.3955C79.2813 17.7482 80.1365 18.7934 80.1365 20.0677C80.1365 21.4808 79.0536 22.9312 76.7995 22.9312C74.5273 22.9312 73.5644 21.6217 73.2947 20.6314C73.254 20.4302 73.369 20.2244 73.5673 20.1667L75.0306 19.8402C75.1205 19.8253 75.2122 19.8826 75.2383 19.9767C75.3575 20.5964 75.8575 21.1281 76.7817 21.1281C77.5501 21.1281 77.9195 20.7204 77.9195 20.2608C77.9195 19.8723 77.6547 19.5527 76.994 19.4134L75.8555 19.1461C74.1963 18.776 73.4462 17.7668 73.4462 16.5467C73.4462 14.9902 74.808 13.6979 76.6602 13.6979C78.7974 13.6979 79.6941 14.8988 79.9563 15.8283C79.9926 16.0255 79.8829 16.2258 79.6862 16.287L78.4389 16.5725C78.2057 16.6236 78.0747 16.4995 77.9995 16.3032C77.8316 15.8833 77.4437 15.4838 76.6771 15.4838C76.0669 15.4838 75.5774 15.8555 75.5774 16.3497C75.5774 16.776 75.8913 17.0408 76.3639 17.1302L77.5856 17.3955ZM105.92 12.2477C105.92 13.5864 104.846 14.6724 103.524 14.6724C102.203 14.6724 101.13 13.5864 101.13 12.2477C101.13 10.9078 102.203 9.82285 103.524 9.82285C104.846 9.82285 105.92 10.9078 105.92 12.2477ZM105.764 8.65691C103.543 8.65691 101.74 6.832 101.74 4.57867C101.74 2.32582 103.543 0.499609 105.764 0.499609C107.991 0.499609 109.796 2.32582 109.796 4.57867C109.796 6.832 107.991 8.65691 105.764 8.65691ZM114.183 3.30376C115.397 3.30376 116.384 4.30004 116.384 5.5332C116.384 6.76299 115.397 7.76117 114.183 7.76117C112.969 7.76117 111.982 6.76299 111.982 5.5332C111.982 4.30004 112.969 3.30376 114.183 3.30376ZM111.265 8.53521C113.584 8.53521 115.461 10.4351 115.461 12.7847C115.461 15.1289 113.584 17.0293 111.265 17.0293C108.951 17.0293 107.072 15.1289 107.072 12.7847C107.072 10.4351 108.951 8.53521 111.265 8.53521ZM102.098 23.5619C102.699 23.5619 103.187 24.0562 103.187 24.6662C103.187 25.2756 102.699 25.7687 102.098 25.7687C101.495 25.7687 101.007 25.2756 101.007 24.6662C101.007 24.0562 101.495 23.5619 102.098 23.5619ZM105.256 16.3077C106.998 16.3077 108.413 17.7383 108.413 19.5059C108.413 21.2703 106.998 22.7031 105.256 22.7031C103.51 22.7031 102.097 21.2703 102.097 19.5059C102.097 17.7383 103.51 16.3077 105.256 16.3077ZM99.9441 25.377V7.85838C99.8826 5.18157 98.2878 2.88914 96.0136 1.84558C95.2591 1.51419 94.4439 1.30142 93.5966 1.2558C89.3984 1.0308 86.1561 3.54479 85.291 6.93753C84.7281 9.00369 85.1634 11.487 86.5683 13.5739C88.2918 16.1366 95.3802 22.9308 98.8019 25.9579C98.9201 26.0455 99.0647 26.0996 99.2235 26.0996C99.6193 26.0996 99.939 25.7769 99.9441 25.377ZM98.4656 17.333C98.4656 18.0427 97.8972 18.62 97.1956 18.62C96.4923 18.62 95.9244 18.0427 95.9244 17.333C95.9244 16.6237 96.4923 16.0467 97.1956 16.0467C97.8972 16.0467 98.4656 16.6237 98.4656 17.333ZM74.1111 11.7555C74.0424 11.9097 72.8123 14.3726 72.8123 14.3726C72.7716 14.4495 72.6818 14.5044 72.6075 14.5044H71.831C71.7509 14.5044 71.6866 14.4393 71.6866 14.3579C71.6866 14.3454 71.6882 14.3328 71.6912 14.321L72.4673 12.5633C71.851 12.4082 71.3884 11.8454 71.3884 11.1755C71.3884 10.3881 72.0269 9.74136 72.8045 9.74136C73.5979 9.74136 74.2362 10.3881 74.2362 11.1755C74.2362 11.4486 74.1797 11.6008 74.1114 11.7555H74.1111ZM45.4237 20.7732C44.1982 20.7732 43.2909 19.8531 43.2909 18.2975C43.2909 16.7406 44.2345 15.855 45.4237 15.855C46.6113 15.855 47.5372 16.7224 47.5372 18.2793C47.5372 19.8531 46.6113 20.7732 45.4237 20.7732ZM47.4911 14.8104C47.2366 14.3517 46.5379 13.7497 45.0736 13.7497C42.645 13.7497 40.951 15.7502 40.951 18.2975C40.951 20.9324 42.6959 22.8785 45.1438 22.8785C46.2963 22.8785 47.1693 22.3472 47.5535 21.6582C47.5559 21.944 47.5922 22.3737 47.6183 22.5206C47.6315 22.5959 47.7432 22.6682 47.8302 22.6682H49.3856C49.6052 22.6682 49.783 22.4866 49.783 22.2664V10.2597C49.783 10.0376 49.6052 9.85804 49.3856 9.85804H47.8883C47.6694 9.85804 47.4911 10.0376 47.4911 10.2597V14.8104ZM55.7593 20.7732C54.5333 20.7732 53.6263 19.8531 53.6263 18.2975C53.6263 16.7406 54.5698 15.855 55.7593 15.855C56.9464 15.855 57.8726 16.7224 57.8726 18.2793C57.8726 19.8531 56.9464 20.7732 55.7593 20.7732ZM57.8267 14.8104C57.5717 14.3517 56.8727 13.7497 55.4092 13.7497C52.9805 13.7497 51.2861 15.7502 51.2861 18.2975C51.2861 20.9324 53.0315 22.8785 55.4789 22.8785C56.6314 22.8785 57.5047 22.3472 57.8886 21.6582C57.8909 21.944 57.9275 22.3737 57.9534 22.5206C57.9665 22.5959 58.0783 22.6682 58.1658 22.6682H59.721C59.9402 22.6682 60.1179 22.4866 60.1179 22.2664V10.2597C60.1179 10.0376 59.9402 9.85804 59.721 9.85804H58.2236C58.0045 9.85804 57.8267 10.0376 57.8267 10.2597V14.8104ZM33.4995 17.3234C33.5525 16.5265 34.2154 15.6078 35.4207 15.6078C36.7491 15.6078 37.3082 16.4566 37.343 17.3234H33.4995ZM35.386 13.6974C33.1846 13.6974 31.1594 15.5007 31.1594 18.2793C31.1594 21.2156 33.2371 22.9312 35.5954 22.9312C37.5663 22.9312 38.871 21.8416 39.3945 20.4781C39.4523 20.3183 39.3698 20.1471 39.2123 20.0888L37.87 19.6782C37.7268 19.6491 37.5386 19.6916 37.4551 19.8598C37.1401 20.4901 36.5665 20.9149 35.6135 20.9149C34.4607 20.9149 33.4995 20.0839 33.4468 18.934H39.2299C39.4459 18.934 39.6105 18.7591 39.622 18.538C39.6274 18.4331 39.6318 18.3228 39.6318 18.207C39.6318 15.4124 38.0421 13.6974 35.386 13.6974ZM70.5014 14.3608L65.4478 25.7209C65.33 25.9296 65.0751 26.0996 64.8634 26.0996H63.1917C62.9745 26.0996 62.8937 25.9216 62.9963 25.6979L64.843 21.5697L61.3843 14.3655C61.26 14.1438 61.3409 13.9627 61.5576 13.9627H63.3543C63.5726 13.9627 63.8502 14.1438 63.9737 14.3631L66.0828 19.0584L68.0313 14.3622C68.1543 14.1438 68.4321 13.9638 68.6473 13.9622H70.3308C70.5458 13.9622 70.6054 14.1314 70.5014 14.3608ZM16.0556 13.8928C16.2479 13.8928 16.4219 13.9093 16.5971 13.9266V16.2967C16.3349 16.2434 16.107 16.2261 15.898 16.2261C14.7109 16.2261 13.6788 16.8108 13.6788 18.6857V22.2685C13.6757 22.4875 13.499 22.6675 13.2823 22.6675H11.7521C11.5351 22.6675 11.3587 22.4875 11.3554 22.2685V14.3524C11.3624 14.1383 11.5385 13.9626 11.7521 13.9626H13.237C13.4431 13.976 13.6078 14.1479 13.6078 14.3604V15.2538C14.1333 14.1039 15.3223 13.8927 16.0556 13.8927V13.8928ZM26.2133 15.7329H24.2556V12.246H26.2133C27.436 12.246 28.1525 12.9359 28.1525 13.9981C28.1525 15.0261 27.436 15.7329 26.2133 15.7329ZM27.9772 17.5351C29.6012 17.059 30.6168 15.7329 30.6168 13.9821C30.6168 11.8029 29.0796 10.1246 26.6667 10.1246H22.2242C22.0048 10.1246 21.8272 10.3063 21.8272 10.5265V22.2664C21.8272 22.4885 22.0048 22.6682 22.2242 22.6682H23.8587C24.0772 22.6682 24.2556 22.4861 24.2556 22.2664V17.8377H25.5133L27.7476 22.2664C27.8602 22.4885 28.1299 22.6682 28.3488 22.6682H30.2297C30.4462 22.6682 30.5359 22.4861 30.4258 22.2664L27.9772 17.5351ZM17.7299 19.5691C18.6216 19.5691 19.3379 20.2951 19.3379 21.1802C19.3379 22.0637 18.6216 22.7908 17.7299 22.7908C16.8562 22.7908 16.1406 22.0637 16.1406 21.1802C16.1406 20.2951 16.8562 19.5691 17.7299 19.5691ZM3.62345 20.4057H2.41061V12.389H3.64275C5.66878 12.389 7.34644 13.6807 7.34644 16.4043C7.34644 19.1305 5.65204 20.4057 3.62345 20.4057ZM3.72804 10.1228H0.397378C0.181051 10.1228 0 10.3055 0 10.525V22.266C0 22.4885 0.181051 22.6677 0.397378 22.6677H3.71043C7.24137 22.6677 9.847 20.3692 9.847 16.4043C9.847 12.4416 7.25937 10.1228 3.72804 10.1228Z" fill="white"/>
</svg>
